<!-- curvas-fondo.svg -->
<svg viewBox="0 0 1440 320" xmlns="http://www.w3.org/2000/svg" preserveAspectRatio="none">
  <path fill="#e6f0fe" fill-opacity="1" d="M0,64L48,85.3C96,107,192,149,288,160C384,171,480,149,576,122.7C672,96,768,64,864,85.3C960,107,1056,181,1152,197.3C1248,213,1344,171,1392,149.3L1440,128L1440,320L1392,320C1344,320,1248,320,1152,320C1056,320,960,320,864,320C768,320,672,320,576,320C480,320,384,320,288,320C192,320,96,320,48,320L0,320Z"></path>
  <path fill="#d3f4ee" fill-opacity="0.6" d="M0,192L48,192C96,192,192,192,288,186.7C384,181,480,171,576,176C672,181,768,203,864,197.3C960,192,1056,160,1152,160C1248,160,1344,192,1392,208L1440,224L1440,0L1392,0C1344,0,1248,0,1152,0C1056,0,960,0,864,0C768,0,672,0,576,0C480,0,384,0,288,0C192,0,96,0,48,0L0,0Z"></path>
</svg>
